{"title":"Sherlock Holmes in The Royal Scandal (2001) Matt Frewer.mp4","uid":15455749,"size":1792631831,"categoryP":"video","categoryS":"movies","magnet":"?xt=urn:btih:f688ecdee46736ac80767b31670cb3fdf85f253c&amp;dn=Sherlock+Holmes+in+The+Royal+Scandal+%282001%29+Matt+Frewer.mp4&amp;tr=udp%3A%2F%2Ftracker.leechers-paradise.org%3A6969&amp;tr=udp%3A%2F%2Fzer0day.ch%3A1337&amp;tr=udp%3A%2F%2Fopen.demonii.com%3A1337&amp;tr=udp%3A%2F%2Ftracker.coppersurfer.tk%3A6969&amp;tr=udp%3A%2F%2Fexodus.desync.com%3A6969","seeders":1,"leechers":0,"uploader":"cjbbaugh","files":1,"time":1469983330,"description":"Sir Arthur Conan Doyle's Sherlock Holmes - the world's greatest detective - faces a most alluring adversary... Legendary opera star Irene Adler is threatening to destroy the King of Bohemia's reputation with proof of their illicit affair. The evidence? A photograph. Her ransom? The king's hand in marriage. But not only does investigating detective Sherlock Holmes already know Irene from the past, he also knows that the queen of manipulation would never resort to such a common crime. After uncovering her true ambitions, Holmes draws the cunning songstress into a well-matched game of cat and mouse. \r\n\r\nGeneral\r\nComplete name : Sherlock Holmes in The Royal Scandal (2001) Matt Frewer.mp4\r\nFormat : MPEG-4\r\nFormat profile : Base Media / Version 2\r\nCodec ID : mp42\r\nFile size : 1.67 GiB\r\nDuration : 1h 28mn\r\nOverall bit rate : 2 716 Kbps\r\nContentType : Unknown Type\r\nEncoded date : UTC 2015-03-21 12:25:40\r\nTagged date : UTC 2015-03-21 12:25:40\r\n\r\n\r\nVideo\r\nID : 1\r\nFormat : AVC\r\nFormat/Info : Advanced Video Codec\r\nFormat profile :   \r\nFormat settings, CABAC : No\r\nFormat settings, ReFrames : 1 frame\r\nMuxing mode : Container   \r\nCodec ID : avc1\r\nCodec ID/Info : Advanced Video Coding\r\nDuration : 1h 28mn\r\nBit rate : 2 582 Kbps\r\nWidth : 1 024 pixels\r\nHeight : 600 pixels\r\nDisplay aspect ratio : 1.707\r\nFrame rate mode : Constant\r\nFrame rate : 29.970 fps\r\nOriginal frame rate : 29.000 fps\r\nColor space : YUV\r\nChroma subsampling : 4:2:0\r\nBit depth : 8 bits\r\nScan type : Progressive\r\nBits/(Pixel*Frame) : 0.140\r\nStream size : 1.59 GiB (95%)\r\nWriting library : À)D\r\nLanguage : English\r\n\r\nAudio\r\nID : 2\r\nFormat : AAC\r\nFormat/Info : Advanced Audio Codec\r\nFormat profile : LC\r\nCodec ID : 40\r\nDuration : 1h 28mn\r\nBit rate mode : Constant\r\nBit rate : 128 Kbps\r\nChannel(s) : 2 channels\r\nChannel positions : Front: L R\r\nSampling rate : 48.0 KHz\r\nCompression mode : Lossy\r\nStream size : 80.6 MiB (5%)\r\nLanguage : English","torrent":{"xt":"urn:btih:f688ecdee46736ac80767b31670cb3fdf85f253c","amp;dn":"Sherlock+Holmes+in+The+Royal+Scandal+%282001%29+Matt+Frewer.mp4","amp;tr":["udp%3A%2F%2Ftracker.leechers-paradise.org%3A6969","udp%3A%2F%2Fzer0day.ch%3A1337","udp%3A%2F%2Fopen.demonii.com%3A1337","udp%3A%2F%2Ftracker.coppersurfer.tk%3A6969","udp%3A%2F%2Fexodus.desync.com%3A6969"],"infoHash":"f688ecdee46736ac80767b31670cb3fdf85f253c","infoHashBuffer":{"type":"Buffer","data":[246,136,236,222,228,103,54,172,128,118,123,49,103,12,179,253,248,95,37,60]},"announce":[],"urlList":[]}}